<mxfile host="app.diagrams.net" modified="2021-07-11T17:56:39.006Z" agent="5.0 (Windows NT 10.0; Win64; x64) AppleWebKit/537.36 (KHTML, like Gecko) Chrome/91.0.4472.124 Safari/537.36" etag="BhXGqcukO37hBL5G1wal" version="14.8.5" type="github">
  <diagram id="t7YS_TH_fgyImCrVqkUV" name="Page-1">
    <mxGraphModel dx="3022" dy="794" grid="1" gridSize="10" guides="1" tooltips="1" connect="1" arrows="1" fold="1" page="1" pageScale="1" pageWidth="1600" pageHeight="2000" math="0" shadow="0">
      <root>
        <mxCell id="0" />
        <mxCell id="1" parent="0" />
        <mxCell id="bzh6Z4zs26yQEtlKFoZD-1" style="edgeStyle=orthogonalEdgeStyle;rounded=0;orthogonalLoop=1;jettySize=auto;html=1;exitX=0.5;exitY=1;exitDx=0;exitDy=0;entryX=0.5;entryY=0;entryDx=0;entryDy=0;fontSize=14;" parent="1" source="bzh6Z4zs26yQEtlKFoZD-2" target="bzh6Z4zs26yQEtlKFoZD-4" edge="1">
          <mxGeometry relative="1" as="geometry" />
        </mxCell>
        <mxCell id="bzh6Z4zs26yQEtlKFoZD-2" value="&lt;font style=&quot;font-size: 14px;&quot;&gt;App Open&lt;/font&gt;" style="ellipse;whiteSpace=wrap;html=1;fontSize=14;" parent="1" vertex="1">
          <mxGeometry x="365" y="30" width="120" height="40" as="geometry" />
        </mxCell>
        <mxCell id="bzh6Z4zs26yQEtlKFoZD-3" style="edgeStyle=orthogonalEdgeStyle;rounded=0;orthogonalLoop=1;jettySize=auto;html=1;exitX=0.5;exitY=1;exitDx=0;exitDy=0;entryX=0.5;entryY=0;entryDx=0;entryDy=0;fontSize=14;" parent="1" source="bzh6Z4zs26yQEtlKFoZD-4" target="bzh6Z4zs26yQEtlKFoZD-13" edge="1">
          <mxGeometry relative="1" as="geometry" />
        </mxCell>
        <mxCell id="bzh6Z4zs26yQEtlKFoZD-4" value="Welcome Message" style="rounded=0;whiteSpace=wrap;html=1;fontSize=14;" parent="1" vertex="1">
          <mxGeometry x="370" y="100" width="115" height="30" as="geometry" />
        </mxCell>
        <mxCell id="bzh6Z4zs26yQEtlKFoZD-51" style="edgeStyle=orthogonalEdgeStyle;rounded=0;orthogonalLoop=1;jettySize=auto;html=1;exitX=0.5;exitY=1;exitDx=0;exitDy=0;entryX=0.5;entryY=0;entryDx=0;entryDy=0;" parent="1" source="bzh6Z4zs26yQEtlKFoZD-6" target="bzh6Z4zs26yQEtlKFoZD-42" edge="1">
          <mxGeometry relative="1" as="geometry" />
        </mxCell>
        <mxCell id="bzh6Z4zs26yQEtlKFoZD-6" value="Sign Up" style="rounded=0;whiteSpace=wrap;html=1;fontSize=14;" parent="1" vertex="1">
          <mxGeometry x="368" y="220" width="115" height="30" as="geometry" />
        </mxCell>
        <mxCell id="bzh6Z4zs26yQEtlKFoZD-28" style="edgeStyle=orthogonalEdgeStyle;rounded=0;orthogonalLoop=1;jettySize=auto;html=1;exitX=0.5;exitY=1;exitDx=0;exitDy=0;entryX=0.5;entryY=0;entryDx=0;entryDy=0;" parent="1" source="bzh6Z4zs26yQEtlKFoZD-8" target="bzh6Z4zs26yQEtlKFoZD-14" edge="1">
          <mxGeometry relative="1" as="geometry" />
        </mxCell>
        <mxCell id="bzh6Z4zs26yQEtlKFoZD-8" value="Login" style="rounded=0;whiteSpace=wrap;html=1;fontSize=14;" parent="1" vertex="1">
          <mxGeometry x="180" y="220" width="115" height="30" as="geometry" />
        </mxCell>
        <mxCell id="bzh6Z4zs26yQEtlKFoZD-56" style="edgeStyle=orthogonalEdgeStyle;rounded=0;orthogonalLoop=1;jettySize=auto;html=1;exitX=0.5;exitY=1;exitDx=0;exitDy=0;entryX=1;entryY=0.5;entryDx=0;entryDy=0;" parent="1" source="bzh6Z4zs26yQEtlKFoZD-9" target="bzh6Z4zs26yQEtlKFoZD-15" edge="1">
          <mxGeometry relative="1" as="geometry" />
        </mxCell>
        <mxCell id="bzh6Z4zs26yQEtlKFoZD-9" value="Skip" style="rounded=0;whiteSpace=wrap;html=1;fontSize=14;" parent="1" vertex="1">
          <mxGeometry x="560" y="220" width="115" height="30" as="geometry" />
        </mxCell>
        <mxCell id="bzh6Z4zs26yQEtlKFoZD-10" style="edgeStyle=orthogonalEdgeStyle;rounded=0;orthogonalLoop=1;jettySize=auto;html=1;exitX=0.5;exitY=1;exitDx=0;exitDy=0;entryX=0.5;entryY=0;entryDx=0;entryDy=0;fontSize=14;" parent="1" source="bzh6Z4zs26yQEtlKFoZD-13" target="bzh6Z4zs26yQEtlKFoZD-6" edge="1">
          <mxGeometry relative="1" as="geometry" />
        </mxCell>
        <mxCell id="bzh6Z4zs26yQEtlKFoZD-11" style="edgeStyle=orthogonalEdgeStyle;rounded=0;orthogonalLoop=1;jettySize=auto;html=1;exitX=0;exitY=0.5;exitDx=0;exitDy=0;fontSize=14;" parent="1" source="bzh6Z4zs26yQEtlKFoZD-13" target="bzh6Z4zs26yQEtlKFoZD-8" edge="1">
          <mxGeometry relative="1" as="geometry" />
        </mxCell>
        <mxCell id="bzh6Z4zs26yQEtlKFoZD-12" style="edgeStyle=orthogonalEdgeStyle;rounded=0;orthogonalLoop=1;jettySize=auto;html=1;exitX=1;exitY=0.5;exitDx=0;exitDy=0;entryX=0.5;entryY=0;entryDx=0;entryDy=0;fontSize=14;" parent="1" source="bzh6Z4zs26yQEtlKFoZD-13" target="bzh6Z4zs26yQEtlKFoZD-9" edge="1">
          <mxGeometry relative="1" as="geometry" />
        </mxCell>
        <mxCell id="bzh6Z4zs26yQEtlKFoZD-13" value="Show some slides" style="rounded=0;whiteSpace=wrap;html=1;fontSize=14;" parent="1" vertex="1">
          <mxGeometry x="370" y="160" width="115" height="30" as="geometry" />
        </mxCell>
        <mxCell id="bzh6Z4zs26yQEtlKFoZD-29" style="edgeStyle=orthogonalEdgeStyle;rounded=0;orthogonalLoop=1;jettySize=auto;html=1;exitX=1;exitY=0.5;exitDx=0;exitDy=0;entryX=0;entryY=0.5;entryDx=0;entryDy=0;" parent="1" source="bzh6Z4zs26yQEtlKFoZD-14" target="bzh6Z4zs26yQEtlKFoZD-15" edge="1">
          <mxGeometry relative="1" as="geometry" />
        </mxCell>
        <mxCell id="bzh6Z4zs26yQEtlKFoZD-38" style="edgeStyle=orthogonalEdgeStyle;rounded=0;orthogonalLoop=1;jettySize=auto;html=1;exitX=0;exitY=0.5;exitDx=0;exitDy=0;entryX=0.5;entryY=1;entryDx=0;entryDy=0;" parent="1" source="bzh6Z4zs26yQEtlKFoZD-14" target="bzh6Z4zs26yQEtlKFoZD-24" edge="1">
          <mxGeometry relative="1" as="geometry" />
        </mxCell>
        <mxCell id="bzh6Z4zs26yQEtlKFoZD-41" style="edgeStyle=orthogonalEdgeStyle;rounded=0;orthogonalLoop=1;jettySize=auto;html=1;exitX=0;exitY=0.5;exitDx=0;exitDy=0;entryX=0.5;entryY=0;entryDx=0;entryDy=0;" parent="1" source="bzh6Z4zs26yQEtlKFoZD-14" target="bzh6Z4zs26yQEtlKFoZD-20" edge="1">
          <mxGeometry relative="1" as="geometry" />
        </mxCell>
        <mxCell id="bzh6Z4zs26yQEtlKFoZD-14" value="" style="rhombus;whiteSpace=wrap;html=1;fontSize=14;" parent="1" vertex="1">
          <mxGeometry x="212.5" y="310" width="50" height="40" as="geometry" />
        </mxCell>
        <mxCell id="bzh6Z4zs26yQEtlKFoZD-48" style="edgeStyle=orthogonalEdgeStyle;rounded=0;orthogonalLoop=1;jettySize=auto;html=1;exitX=0.5;exitY=1;exitDx=0;exitDy=0;entryX=0.435;entryY=0;entryDx=0;entryDy=0;entryPerimeter=0;" parent="1" source="bzh6Z4zs26yQEtlKFoZD-15" target="bzh6Z4zs26yQEtlKFoZD-17" edge="1">
          <mxGeometry relative="1" as="geometry" />
        </mxCell>
        <mxCell id="bzh6Z4zs26yQEtlKFoZD-49" style="edgeStyle=orthogonalEdgeStyle;rounded=0;orthogonalLoop=1;jettySize=auto;html=1;exitX=0.5;exitY=1;exitDx=0;exitDy=0;entryX=0.5;entryY=0;entryDx=0;entryDy=0;" parent="1" source="bzh6Z4zs26yQEtlKFoZD-15" target="bzh6Z4zs26yQEtlKFoZD-18" edge="1">
          <mxGeometry relative="1" as="geometry" />
        </mxCell>
        <mxCell id="bzh6Z4zs26yQEtlKFoZD-50" style="edgeStyle=orthogonalEdgeStyle;rounded=0;orthogonalLoop=1;jettySize=auto;html=1;exitX=0.5;exitY=1;exitDx=0;exitDy=0;" parent="1" source="bzh6Z4zs26yQEtlKFoZD-15" target="bzh6Z4zs26yQEtlKFoZD-19" edge="1">
          <mxGeometry relative="1" as="geometry" />
        </mxCell>
        <mxCell id="bzh6Z4zs26yQEtlKFoZD-52" style="edgeStyle=orthogonalEdgeStyle;rounded=0;orthogonalLoop=1;jettySize=auto;html=1;exitX=0.5;exitY=1;exitDx=0;exitDy=0;entryX=0.5;entryY=0;entryDx=0;entryDy=0;" parent="1" source="bzh6Z4zs26yQEtlKFoZD-15" target="bzh6Z4zs26yQEtlKFoZD-16" edge="1">
          <mxGeometry relative="1" as="geometry" />
        </mxCell>
        <mxCell id="bzh6Z4zs26yQEtlKFoZD-15" value="Home Screen" style="rounded=0;whiteSpace=wrap;html=1;fontSize=14;" parent="1" vertex="1">
          <mxGeometry x="368" y="460" width="115" height="30" as="geometry" />
        </mxCell>
        <mxCell id="m7PNWXCtgrSbPOzqSXnF-21" style="edgeStyle=orthogonalEdgeStyle;rounded=0;orthogonalLoop=1;jettySize=auto;html=1;exitX=0.5;exitY=1;exitDx=0;exitDy=0;entryX=0.5;entryY=0;entryDx=0;entryDy=0;" edge="1" parent="1" source="bzh6Z4zs26yQEtlKFoZD-16" target="m7PNWXCtgrSbPOzqSXnF-11">
          <mxGeometry relative="1" as="geometry" />
        </mxCell>
        <mxCell id="bzh6Z4zs26yQEtlKFoZD-16" value="App Drawer(Top Left)" style="rounded=0;whiteSpace=wrap;html=1;fontSize=14;" parent="1" vertex="1">
          <mxGeometry x="82.5" y="560" width="140" height="30" as="geometry" />
        </mxCell>
        <mxCell id="bzh6Z4zs26yQEtlKFoZD-73" style="edgeStyle=orthogonalEdgeStyle;rounded=0;orthogonalLoop=1;jettySize=auto;html=1;exitX=0.5;exitY=1;exitDx=0;exitDy=0;entryX=0.5;entryY=0;entryDx=0;entryDy=0;" parent="1" source="bzh6Z4zs26yQEtlKFoZD-17" target="bzh6Z4zs26yQEtlKFoZD-57" edge="1">
          <mxGeometry relative="1" as="geometry" />
        </mxCell>
        <mxCell id="bzh6Z4zs26yQEtlKFoZD-74" style="edgeStyle=orthogonalEdgeStyle;rounded=0;orthogonalLoop=1;jettySize=auto;html=1;exitX=0.5;exitY=1;exitDx=0;exitDy=0;entryX=0.5;entryY=0;entryDx=0;entryDy=0;" parent="1" source="bzh6Z4zs26yQEtlKFoZD-17" target="bzh6Z4zs26yQEtlKFoZD-58" edge="1">
          <mxGeometry relative="1" as="geometry" />
        </mxCell>
        <mxCell id="bzh6Z4zs26yQEtlKFoZD-75" style="edgeStyle=orthogonalEdgeStyle;rounded=0;orthogonalLoop=1;jettySize=auto;html=1;exitX=0.5;exitY=1;exitDx=0;exitDy=0;" parent="1" source="bzh6Z4zs26yQEtlKFoZD-17" target="bzh6Z4zs26yQEtlKFoZD-59" edge="1">
          <mxGeometry relative="1" as="geometry" />
        </mxCell>
        <mxCell id="bzh6Z4zs26yQEtlKFoZD-17" value="Dashboard" style="rounded=0;whiteSpace=wrap;html=1;fontSize=14;" parent="1" vertex="1">
          <mxGeometry x="272.5" y="560" width="115" height="30" as="geometry" />
        </mxCell>
        <mxCell id="wWIskIW9nuBPbiDeu4u0-4" style="edgeStyle=orthogonalEdgeStyle;rounded=0;orthogonalLoop=1;jettySize=auto;html=1;exitX=0.5;exitY=1;exitDx=0;exitDy=0;" parent="1" source="bzh6Z4zs26yQEtlKFoZD-18" edge="1">
          <mxGeometry relative="1" as="geometry">
            <mxPoint x="1010" y="1210" as="targetPoint" />
          </mxGeometry>
        </mxCell>
        <mxCell id="bzh6Z4zs26yQEtlKFoZD-18" value="Explore&lt;br&gt;" style="rounded=0;whiteSpace=wrap;html=1;fontSize=14;" parent="1" vertex="1">
          <mxGeometry x="442.5" y="560" width="115" height="30" as="geometry" />
        </mxCell>
        <mxCell id="ZFwCGCAlG8eQkIa3_4RF-12" style="edgeStyle=orthogonalEdgeStyle;rounded=0;orthogonalLoop=1;jettySize=auto;html=1;exitX=0.5;exitY=1;exitDx=0;exitDy=0;" parent="1" source="bzh6Z4zs26yQEtlKFoZD-19" target="ZFwCGCAlG8eQkIa3_4RF-6" edge="1">
          <mxGeometry relative="1" as="geometry">
            <Array as="points">
              <mxPoint x="670" y="618" />
              <mxPoint x="1193" y="618" />
            </Array>
          </mxGeometry>
        </mxCell>
        <mxCell id="ZFwCGCAlG8eQkIa3_4RF-14" style="edgeStyle=orthogonalEdgeStyle;rounded=0;orthogonalLoop=1;jettySize=auto;html=1;exitX=0.5;exitY=1;exitDx=0;exitDy=0;entryX=0.5;entryY=0;entryDx=0;entryDy=0;" parent="1" source="bzh6Z4zs26yQEtlKFoZD-19" target="ZFwCGCAlG8eQkIa3_4RF-1" edge="1">
          <mxGeometry relative="1" as="geometry" />
        </mxCell>
        <mxCell id="ZFwCGCAlG8eQkIa3_4RF-15" style="edgeStyle=orthogonalEdgeStyle;rounded=0;orthogonalLoop=1;jettySize=auto;html=1;exitX=0.5;exitY=1;exitDx=0;exitDy=0;" parent="1" source="bzh6Z4zs26yQEtlKFoZD-19" target="ZFwCGCAlG8eQkIa3_4RF-2" edge="1">
          <mxGeometry relative="1" as="geometry" />
        </mxCell>
        <mxCell id="ZFwCGCAlG8eQkIa3_4RF-16" style="edgeStyle=orthogonalEdgeStyle;rounded=0;orthogonalLoop=1;jettySize=auto;html=1;exitX=0.5;exitY=1;exitDx=0;exitDy=0;" parent="1" source="bzh6Z4zs26yQEtlKFoZD-19" target="ZFwCGCAlG8eQkIa3_4RF-3" edge="1">
          <mxGeometry relative="1" as="geometry" />
        </mxCell>
        <mxCell id="ZFwCGCAlG8eQkIa3_4RF-17" style="edgeStyle=orthogonalEdgeStyle;rounded=0;orthogonalLoop=1;jettySize=auto;html=1;exitX=0.5;exitY=1;exitDx=0;exitDy=0;entryX=0.5;entryY=0;entryDx=0;entryDy=0;" parent="1" source="bzh6Z4zs26yQEtlKFoZD-19" target="ZFwCGCAlG8eQkIa3_4RF-4" edge="1">
          <mxGeometry relative="1" as="geometry" />
        </mxCell>
        <mxCell id="ZFwCGCAlG8eQkIa3_4RF-18" style="edgeStyle=orthogonalEdgeStyle;rounded=0;orthogonalLoop=1;jettySize=auto;html=1;exitX=0.5;exitY=1;exitDx=0;exitDy=0;" parent="1" source="bzh6Z4zs26yQEtlKFoZD-19" target="ZFwCGCAlG8eQkIa3_4RF-5" edge="1">
          <mxGeometry relative="1" as="geometry" />
        </mxCell>
        <mxCell id="bzh6Z4zs26yQEtlKFoZD-19" value="Notifications" style="rounded=0;whiteSpace=wrap;html=1;fontSize=14;" parent="1" vertex="1">
          <mxGeometry x="612.5" y="560" width="115" height="30" as="geometry" />
        </mxCell>
        <mxCell id="bzh6Z4zs26yQEtlKFoZD-20" value="Forgot Password" style="rounded=0;whiteSpace=wrap;html=1;fontSize=14;" parent="1" vertex="1">
          <mxGeometry x="5" y="390" width="105" height="30" as="geometry" />
        </mxCell>
        <mxCell id="bzh6Z4zs26yQEtlKFoZD-39" style="edgeStyle=orthogonalEdgeStyle;rounded=0;orthogonalLoop=1;jettySize=auto;html=1;exitX=0.5;exitY=0;exitDx=0;exitDy=0;entryX=0;entryY=0.5;entryDx=0;entryDy=0;" parent="1" source="bzh6Z4zs26yQEtlKFoZD-24" target="bzh6Z4zs26yQEtlKFoZD-8" edge="1">
          <mxGeometry relative="1" as="geometry" />
        </mxCell>
        <mxCell id="bzh6Z4zs26yQEtlKFoZD-24" value="Retry" style="rounded=0;whiteSpace=wrap;html=1;fontSize=14;" parent="1" vertex="1">
          <mxGeometry x="32.5" y="240" width="50" height="30" as="geometry" />
        </mxCell>
        <mxCell id="bzh6Z4zs26yQEtlKFoZD-33" value="Yes" style="rounded=0;whiteSpace=wrap;html=1;fontSize=14;" parent="1" vertex="1">
          <mxGeometry x="262.5" y="300" width="50" height="30" as="geometry" />
        </mxCell>
        <mxCell id="bzh6Z4zs26yQEtlKFoZD-37" value="Wrong Credential" style="rounded=0;whiteSpace=wrap;html=1;fontSize=14;" parent="1" vertex="1">
          <mxGeometry x="120" y="300" width="80" height="30" as="geometry" />
        </mxCell>
        <mxCell id="bzh6Z4zs26yQEtlKFoZD-55" style="edgeStyle=orthogonalEdgeStyle;rounded=0;orthogonalLoop=1;jettySize=auto;html=1;exitX=0.5;exitY=1;exitDx=0;exitDy=0;entryX=0.467;entryY=0;entryDx=0;entryDy=0;entryPerimeter=0;" parent="1" source="bzh6Z4zs26yQEtlKFoZD-42" target="bzh6Z4zs26yQEtlKFoZD-53" edge="1">
          <mxGeometry relative="1" as="geometry">
            <mxPoint x="428" y="380" as="targetPoint" />
          </mxGeometry>
        </mxCell>
        <mxCell id="bzh6Z4zs26yQEtlKFoZD-42" value="" style="rhombus;whiteSpace=wrap;html=1;fontSize=14;" parent="1" vertex="1">
          <mxGeometry x="402.5" y="285" width="50" height="35" as="geometry" />
        </mxCell>
        <mxCell id="bzh6Z4zs26yQEtlKFoZD-46" value="Yes" style="rounded=0;whiteSpace=wrap;html=1;fontSize=14;" parent="1" vertex="1">
          <mxGeometry x="370" y="340" width="50" height="30" as="geometry" />
        </mxCell>
        <mxCell id="bzh6Z4zs26yQEtlKFoZD-54" style="edgeStyle=orthogonalEdgeStyle;rounded=0;orthogonalLoop=1;jettySize=auto;html=1;exitX=0.5;exitY=1;exitDx=0;exitDy=0;entryX=0.5;entryY=0;entryDx=0;entryDy=0;" parent="1" source="bzh6Z4zs26yQEtlKFoZD-53" target="bzh6Z4zs26yQEtlKFoZD-15" edge="1">
          <mxGeometry relative="1" as="geometry" />
        </mxCell>
        <mxCell id="bzh6Z4zs26yQEtlKFoZD-53" value="Add interests" style="rounded=0;whiteSpace=wrap;html=1;fontSize=14;" parent="1" vertex="1">
          <mxGeometry x="400" y="390" width="60" height="40" as="geometry" />
        </mxCell>
        <mxCell id="bzh6Z4zs26yQEtlKFoZD-67" style="edgeStyle=orthogonalEdgeStyle;rounded=0;orthogonalLoop=1;jettySize=auto;html=1;exitX=0.5;exitY=1;exitDx=0;exitDy=0;entryX=0;entryY=0.5;entryDx=0;entryDy=0;" parent="1" source="bzh6Z4zs26yQEtlKFoZD-57" target="bzh6Z4zs26yQEtlKFoZD-66" edge="1">
          <mxGeometry relative="1" as="geometry" />
        </mxCell>
        <mxCell id="bzh6Z4zs26yQEtlKFoZD-57" value="Latest" style="rounded=0;whiteSpace=wrap;html=1;fontSize=14;" parent="1" vertex="1">
          <mxGeometry x="212.5" y="660" width="75" height="30" as="geometry" />
        </mxCell>
        <mxCell id="bzh6Z4zs26yQEtlKFoZD-68" style="edgeStyle=orthogonalEdgeStyle;rounded=0;orthogonalLoop=1;jettySize=auto;html=1;exitX=0.5;exitY=1;exitDx=0;exitDy=0;entryX=0.5;entryY=0;entryDx=0;entryDy=0;" parent="1" source="bzh6Z4zs26yQEtlKFoZD-58" target="bzh6Z4zs26yQEtlKFoZD-66" edge="1">
          <mxGeometry relative="1" as="geometry" />
        </mxCell>
        <mxCell id="bzh6Z4zs26yQEtlKFoZD-58" value="For You&lt;br&gt;(Based on interest)" style="rounded=0;whiteSpace=wrap;html=1;fontSize=14;" parent="1" vertex="1">
          <mxGeometry x="307.5" y="660" width="75" height="50" as="geometry" />
        </mxCell>
        <mxCell id="bzh6Z4zs26yQEtlKFoZD-69" style="edgeStyle=orthogonalEdgeStyle;rounded=0;orthogonalLoop=1;jettySize=auto;html=1;exitX=0.5;exitY=1;exitDx=0;exitDy=0;entryX=1;entryY=0.5;entryDx=0;entryDy=0;" parent="1" source="bzh6Z4zs26yQEtlKFoZD-59" target="bzh6Z4zs26yQEtlKFoZD-66" edge="1">
          <mxGeometry relative="1" as="geometry" />
        </mxCell>
        <mxCell id="bzh6Z4zs26yQEtlKFoZD-59" value="Trending" style="rounded=0;whiteSpace=wrap;html=1;fontSize=14;" parent="1" vertex="1">
          <mxGeometry x="405" y="660" width="75" height="30" as="geometry" />
        </mxCell>
        <mxCell id="bzh6Z4zs26yQEtlKFoZD-60" value="Summary&lt;span style=&quot;white-space: pre&quot;&gt; &lt;/span&gt;" style="rounded=0;whiteSpace=wrap;html=1;fontSize=14;" parent="1" vertex="1">
          <mxGeometry x="240" y="800" width="75" height="30" as="geometry" />
        </mxCell>
        <mxCell id="bzh6Z4zs26yQEtlKFoZD-61" value="Podcast" style="rounded=0;whiteSpace=wrap;html=1;fontSize=14;" parent="1" vertex="1">
          <mxGeometry x="380" y="800" width="75" height="30" as="geometry" />
        </mxCell>
        <mxCell id="bzh6Z4zs26yQEtlKFoZD-71" style="edgeStyle=orthogonalEdgeStyle;rounded=0;orthogonalLoop=1;jettySize=auto;html=1;exitX=0.5;exitY=1;exitDx=0;exitDy=0;entryX=0.5;entryY=0;entryDx=0;entryDy=0;" parent="1" source="bzh6Z4zs26yQEtlKFoZD-66" target="bzh6Z4zs26yQEtlKFoZD-60" edge="1">
          <mxGeometry relative="1" as="geometry" />
        </mxCell>
        <mxCell id="bzh6Z4zs26yQEtlKFoZD-72" style="edgeStyle=orthogonalEdgeStyle;rounded=0;orthogonalLoop=1;jettySize=auto;html=1;exitX=0.5;exitY=1;exitDx=0;exitDy=0;entryX=0.5;entryY=0;entryDx=0;entryDy=0;" parent="1" source="bzh6Z4zs26yQEtlKFoZD-66" target="bzh6Z4zs26yQEtlKFoZD-61" edge="1">
          <mxGeometry relative="1" as="geometry" />
        </mxCell>
        <mxCell id="bzh6Z4zs26yQEtlKFoZD-66" value="Type" style="rounded=0;whiteSpace=wrap;html=1;fontSize=14;" parent="1" vertex="1">
          <mxGeometry x="312.5" y="730" width="75" height="30" as="geometry" />
        </mxCell>
        <mxCell id="ZFwCGCAlG8eQkIa3_4RF-21" style="edgeStyle=orthogonalEdgeStyle;rounded=0;orthogonalLoop=1;jettySize=auto;html=1;exitX=0.5;exitY=1;exitDx=0;exitDy=0;entryX=0;entryY=0.5;entryDx=0;entryDy=0;" parent="1" source="ZFwCGCAlG8eQkIa3_4RF-1" target="ZFwCGCAlG8eQkIa3_4RF-19" edge="1">
          <mxGeometry relative="1" as="geometry" />
        </mxCell>
        <mxCell id="ZFwCGCAlG8eQkIa3_4RF-1" value="1.Update collection book reminder" style="rounded=0;whiteSpace=wrap;html=1;fontSize=14;" parent="1" vertex="1">
          <mxGeometry x="530" y="645" width="105" height="60" as="geometry" />
        </mxCell>
        <mxCell id="ZFwCGCAlG8eQkIa3_4RF-22" style="edgeStyle=orthogonalEdgeStyle;rounded=0;orthogonalLoop=1;jettySize=auto;html=1;exitX=0.5;exitY=1;exitDx=0;exitDy=0;" parent="1" source="ZFwCGCAlG8eQkIa3_4RF-2" edge="1">
          <mxGeometry relative="1" as="geometry">
            <mxPoint x="703" y="770" as="targetPoint" />
          </mxGeometry>
        </mxCell>
        <mxCell id="ZFwCGCAlG8eQkIa3_4RF-2" value="2.incompleted reading book reminder" style="rounded=0;whiteSpace=wrap;html=1;fontSize=14;" parent="1" vertex="1">
          <mxGeometry x="650" y="645" width="105" height="60" as="geometry" />
        </mxCell>
        <mxCell id="ZFwCGCAlG8eQkIa3_4RF-24" style="edgeStyle=orthogonalEdgeStyle;rounded=0;orthogonalLoop=1;jettySize=auto;html=1;exitX=0.5;exitY=1;exitDx=0;exitDy=0;entryX=0.581;entryY=0.017;entryDx=0;entryDy=0;entryPerimeter=0;" parent="1" source="ZFwCGCAlG8eQkIa3_4RF-3" target="ZFwCGCAlG8eQkIa3_4RF-19" edge="1">
          <mxGeometry relative="1" as="geometry" />
        </mxCell>
        <mxCell id="ZFwCGCAlG8eQkIa3_4RF-3" value="3.Subscription offer reminder" style="rounded=0;whiteSpace=wrap;html=1;fontSize=14;" parent="1" vertex="1">
          <mxGeometry x="770" y="645" width="105" height="60" as="geometry" />
        </mxCell>
        <mxCell id="ZFwCGCAlG8eQkIa3_4RF-31" style="edgeStyle=orthogonalEdgeStyle;rounded=0;orthogonalLoop=1;jettySize=auto;html=1;exitX=0.5;exitY=1;exitDx=0;exitDy=0;" parent="1" source="ZFwCGCAlG8eQkIa3_4RF-4" edge="1">
          <mxGeometry relative="1" as="geometry">
            <mxPoint x="953" y="770" as="targetPoint" />
          </mxGeometry>
        </mxCell>
        <mxCell id="ZFwCGCAlG8eQkIa3_4RF-4" value="4.Reffer friend offer reminder" style="rounded=0;whiteSpace=wrap;html=1;fontSize=14;" parent="1" vertex="1">
          <mxGeometry x="900" y="645" width="105" height="60" as="geometry" />
        </mxCell>
        <mxCell id="ZFwCGCAlG8eQkIa3_4RF-30" style="edgeStyle=orthogonalEdgeStyle;rounded=0;orthogonalLoop=1;jettySize=auto;html=1;exitX=0.5;exitY=1;exitDx=0;exitDy=0;" parent="1" source="ZFwCGCAlG8eQkIa3_4RF-5" edge="1">
          <mxGeometry relative="1" as="geometry">
            <mxPoint x="1073" y="770" as="targetPoint" />
          </mxGeometry>
        </mxCell>
        <mxCell id="ZFwCGCAlG8eQkIa3_4RF-5" value="5.Flash book offer reminder" style="rounded=0;whiteSpace=wrap;html=1;fontSize=14;" parent="1" vertex="1">
          <mxGeometry x="1020" y="645" width="105" height="60" as="geometry" />
        </mxCell>
        <mxCell id="ZFwCGCAlG8eQkIa3_4RF-29" style="edgeStyle=orthogonalEdgeStyle;rounded=0;orthogonalLoop=1;jettySize=auto;html=1;exitX=0.5;exitY=1;exitDx=0;exitDy=0;entryX=1;entryY=0.5;entryDx=0;entryDy=0;" parent="1" source="ZFwCGCAlG8eQkIa3_4RF-6" target="ZFwCGCAlG8eQkIa3_4RF-19" edge="1">
          <mxGeometry relative="1" as="geometry" />
        </mxCell>
        <mxCell id="ZFwCGCAlG8eQkIa3_4RF-6" value="6.Add friend request reminder" style="rounded=0;whiteSpace=wrap;html=1;fontSize=14;" parent="1" vertex="1">
          <mxGeometry x="1140" y="645" width="105" height="60" as="geometry" />
        </mxCell>
        <mxCell id="ZFwCGCAlG8eQkIa3_4RF-19" value="Button&lt;br&gt;enable/disable" style="rounded=0;whiteSpace=wrap;html=1;fontSize=14;" parent="1" vertex="1">
          <mxGeometry x="770" y="740" width="105" height="60" as="geometry" />
        </mxCell>
        <mxCell id="m7PNWXCtgrSbPOzqSXnF-2" style="edgeStyle=orthogonalEdgeStyle;rounded=0;orthogonalLoop=1;jettySize=auto;html=1;exitX=0.25;exitY=1;exitDx=0;exitDy=0;entryX=0.5;entryY=0;entryDx=0;entryDy=0;" edge="1" parent="1" source="m7PNWXCtgrSbPOzqSXnF-8" target="m7PNWXCtgrSbPOzqSXnF-15">
          <mxGeometry relative="1" as="geometry">
            <mxPoint x="-540" y="1280" as="targetPoint" />
          </mxGeometry>
        </mxCell>
        <mxCell id="m7PNWXCtgrSbPOzqSXnF-3" style="edgeStyle=orthogonalEdgeStyle;rounded=0;orthogonalLoop=1;jettySize=auto;html=1;exitX=0.25;exitY=1;exitDx=0;exitDy=0;entryX=0.5;entryY=0;entryDx=0;entryDy=0;" edge="1" parent="1" source="m7PNWXCtgrSbPOzqSXnF-8" target="m7PNWXCtgrSbPOzqSXnF-16">
          <mxGeometry relative="1" as="geometry" />
        </mxCell>
        <mxCell id="m7PNWXCtgrSbPOzqSXnF-4" style="edgeStyle=orthogonalEdgeStyle;rounded=0;orthogonalLoop=1;jettySize=auto;html=1;exitX=0.25;exitY=1;exitDx=0;exitDy=0;entryX=0.5;entryY=0;entryDx=0;entryDy=0;" edge="1" parent="1" source="m7PNWXCtgrSbPOzqSXnF-8" target="m7PNWXCtgrSbPOzqSXnF-17">
          <mxGeometry relative="1" as="geometry" />
        </mxCell>
        <mxCell id="m7PNWXCtgrSbPOzqSXnF-5" style="edgeStyle=orthogonalEdgeStyle;rounded=0;orthogonalLoop=1;jettySize=auto;html=1;exitX=0.25;exitY=1;exitDx=0;exitDy=0;entryX=0.5;entryY=0;entryDx=0;entryDy=0;" edge="1" parent="1" source="m7PNWXCtgrSbPOzqSXnF-8" target="m7PNWXCtgrSbPOzqSXnF-18">
          <mxGeometry relative="1" as="geometry" />
        </mxCell>
        <mxCell id="m7PNWXCtgrSbPOzqSXnF-6" style="edgeStyle=orthogonalEdgeStyle;rounded=0;orthogonalLoop=1;jettySize=auto;html=1;exitX=0.25;exitY=1;exitDx=0;exitDy=0;" edge="1" parent="1" source="m7PNWXCtgrSbPOzqSXnF-8" target="m7PNWXCtgrSbPOzqSXnF-19">
          <mxGeometry relative="1" as="geometry" />
        </mxCell>
        <mxCell id="m7PNWXCtgrSbPOzqSXnF-7" style="edgeStyle=orthogonalEdgeStyle;rounded=0;orthogonalLoop=1;jettySize=auto;html=1;exitX=0.25;exitY=1;exitDx=0;exitDy=0;entryX=0.5;entryY=0;entryDx=0;entryDy=0;" edge="1" parent="1" source="m7PNWXCtgrSbPOzqSXnF-8" target="m7PNWXCtgrSbPOzqSXnF-20">
          <mxGeometry relative="1" as="geometry" />
        </mxCell>
        <mxCell id="m7PNWXCtgrSbPOzqSXnF-8" value="Profile" style="rounded=0;whiteSpace=wrap;html=1;fontSize=14;" vertex="1" parent="1">
          <mxGeometry x="-497.5" y="1210" width="75" height="30" as="geometry" />
        </mxCell>
        <mxCell id="m7PNWXCtgrSbPOzqSXnF-9" style="edgeStyle=orthogonalEdgeStyle;rounded=0;orthogonalLoop=1;jettySize=auto;html=1;exitX=0.5;exitY=1;exitDx=0;exitDy=0;" edge="1" parent="1" source="m7PNWXCtgrSbPOzqSXnF-11">
          <mxGeometry relative="1" as="geometry">
            <mxPoint x="-600" y="1210" as="targetPoint" />
          </mxGeometry>
        </mxCell>
        <mxCell id="m7PNWXCtgrSbPOzqSXnF-10" style="edgeStyle=orthogonalEdgeStyle;rounded=0;orthogonalLoop=1;jettySize=auto;html=1;exitX=0.5;exitY=1;exitDx=0;exitDy=0;" edge="1" parent="1" source="m7PNWXCtgrSbPOzqSXnF-11">
          <mxGeometry relative="1" as="geometry">
            <mxPoint x="-460" y="1210" as="targetPoint" />
          </mxGeometry>
        </mxCell>
        <mxCell id="m7PNWXCtgrSbPOzqSXnF-27" style="edgeStyle=orthogonalEdgeStyle;rounded=0;orthogonalLoop=1;jettySize=auto;html=1;exitX=0.5;exitY=1;exitDx=0;exitDy=0;" edge="1" parent="1" source="m7PNWXCtgrSbPOzqSXnF-11" target="m7PNWXCtgrSbPOzqSXnF-22">
          <mxGeometry relative="1" as="geometry" />
        </mxCell>
        <mxCell id="m7PNWXCtgrSbPOzqSXnF-28" style="edgeStyle=orthogonalEdgeStyle;rounded=0;orthogonalLoop=1;jettySize=auto;html=1;exitX=0.5;exitY=1;exitDx=0;exitDy=0;" edge="1" parent="1" source="m7PNWXCtgrSbPOzqSXnF-11" target="m7PNWXCtgrSbPOzqSXnF-24">
          <mxGeometry relative="1" as="geometry" />
        </mxCell>
        <mxCell id="m7PNWXCtgrSbPOzqSXnF-30" style="edgeStyle=orthogonalEdgeStyle;rounded=0;orthogonalLoop=1;jettySize=auto;html=1;exitX=0.5;exitY=1;exitDx=0;exitDy=0;entryX=0.438;entryY=0.033;entryDx=0;entryDy=0;entryPerimeter=0;" edge="1" parent="1" source="m7PNWXCtgrSbPOzqSXnF-11" target="m7PNWXCtgrSbPOzqSXnF-26">
          <mxGeometry relative="1" as="geometry" />
        </mxCell>
        <mxCell id="m7PNWXCtgrSbPOzqSXnF-11" value="&lt;font style=&quot;font-size: 14px&quot;&gt;Logeed in?&lt;/font&gt;" style="rhombus;whiteSpace=wrap;html=1;" vertex="1" parent="1">
          <mxGeometry x="-550" y="1060" width="90" height="70" as="geometry" />
        </mxCell>
        <mxCell id="m7PNWXCtgrSbPOzqSXnF-12" value="No" style="text;html=1;strokeColor=none;fillColor=none;align=center;verticalAlign=middle;whiteSpace=wrap;rounded=0;" vertex="1" parent="1">
          <mxGeometry x="-600" y="1140" width="40" height="20" as="geometry" />
        </mxCell>
        <mxCell id="m7PNWXCtgrSbPOzqSXnF-13" value="Yes" style="text;html=1;strokeColor=none;fillColor=none;align=center;verticalAlign=middle;whiteSpace=wrap;rounded=0;" vertex="1" parent="1">
          <mxGeometry x="-480" y="1140" width="40" height="20" as="geometry" />
        </mxCell>
        <mxCell id="m7PNWXCtgrSbPOzqSXnF-14" value="Login Button" style="rounded=0;whiteSpace=wrap;html=1;" vertex="1" parent="1">
          <mxGeometry x="-650" y="1210" width="110" height="30" as="geometry" />
        </mxCell>
        <mxCell id="m7PNWXCtgrSbPOzqSXnF-15" value="&lt;span style=&quot;font-family: &amp;#34;arial&amp;#34; ; background-color: transparent ; vertical-align: baseline&quot; id=&quot;docs-internal-guid-65e44283-7fff-332e-ddae-ba773afecb36&quot;&gt;&lt;font style=&quot;font-size: 14px&quot;&gt;Currently Connected Account&lt;/font&gt;&lt;/span&gt;" style="rounded=0;whiteSpace=wrap;html=1;" vertex="1" parent="1">
          <mxGeometry x="-720" y="1280" width="120" height="60" as="geometry" />
        </mxCell>
        <mxCell id="m7PNWXCtgrSbPOzqSXnF-16" value="&lt;span style=&quot;font-family: &amp;#34;arial&amp;#34; ; background-color: transparent ; vertical-align: baseline&quot; id=&quot;docs-internal-guid-409847eb-7fff-2cc2-aeb9-99d91bac9836&quot;&gt;&lt;font style=&quot;font-size: 14px&quot;&gt;Update Profile&lt;/font&gt;&lt;/span&gt;" style="rounded=0;whiteSpace=wrap;html=1;" vertex="1" parent="1">
          <mxGeometry x="-590" y="1280" width="120" height="60" as="geometry" />
        </mxCell>
        <mxCell id="m7PNWXCtgrSbPOzqSXnF-17" value="&lt;font style=&quot;font-size: 14px&quot;&gt;&lt;br&gt;&lt;span style=&quot;font-family: &amp;#34;arial&amp;#34; ; color: rgb(0 , 0 , 0) ; background-color: transparent ; font-weight: 400 ; font-style: normal ; font-variant: normal ; text-decoration: none ; vertical-align: baseline&quot; id=&quot;docs-internal-guid-08b172d0-7fff-ef7b-7c4d-0ef4d547f844&quot;&gt;Change Password&lt;/span&gt;&lt;br&gt;&lt;/font&gt;" style="rounded=0;whiteSpace=wrap;html=1;" vertex="1" parent="1">
          <mxGeometry x="-460" y="1280" width="120" height="60" as="geometry" />
        </mxCell>
        <mxCell id="m7PNWXCtgrSbPOzqSXnF-18" value="&lt;span style=&quot;font-family: &amp;#34;arial&amp;#34; ; background-color: transparent ; vertical-align: baseline&quot; id=&quot;docs-internal-guid-f730657b-7fff-4be1-4865-114f0b5c857f&quot;&gt;&lt;font style=&quot;font-size: 14px&quot;&gt;Own summary and submitted List&lt;/font&gt;&lt;/span&gt;" style="rounded=0;whiteSpace=wrap;html=1;" vertex="1" parent="1">
          <mxGeometry x="-330" y="1280" width="120" height="60" as="geometry" />
        </mxCell>
        <mxCell id="m7PNWXCtgrSbPOzqSXnF-19" value="&lt;span style=&quot;font-family: &amp;#34;arial&amp;#34; ; background-color: transparent ; vertical-align: baseline&quot; id=&quot;docs-internal-guid-634fcec9-7fff-eb4a-65f7-642e70b6d12d&quot;&gt;&lt;font style=&quot;font-size: 14px&quot;&gt;Current Progress&lt;/font&gt;&lt;/span&gt;" style="rounded=0;whiteSpace=wrap;html=1;" vertex="1" parent="1">
          <mxGeometry x="-200" y="1280" width="120" height="60" as="geometry" />
        </mxCell>
        <mxCell id="m7PNWXCtgrSbPOzqSXnF-20" value="&lt;font face=&quot;arial&quot; style=&quot;font-size: 14px&quot;&gt;Update Interests&lt;/font&gt;" style="rounded=0;whiteSpace=wrap;html=1;" vertex="1" parent="1">
          <mxGeometry x="-70" y="1280" width="120" height="60" as="geometry" />
        </mxCell>
        <mxCell id="m7PNWXCtgrSbPOzqSXnF-22" value="&lt;span style=&quot;font-family: &amp;#34;arial&amp;#34; ; background-color: transparent ; vertical-align: baseline&quot; id=&quot;docs-internal-guid-903117e0-7fff-71b1-bc98-bc9baa7d7a13&quot;&gt;&lt;font style=&quot;font-size: 14px&quot;&gt;View Wishlist(Count)&lt;/font&gt;&lt;/span&gt;" style="rounded=0;whiteSpace=wrap;html=1;" vertex="1" parent="1">
          <mxGeometry x="-400" y="1210" width="120" height="30" as="geometry" />
        </mxCell>
        <mxCell id="m7PNWXCtgrSbPOzqSXnF-24" value="&lt;span style=&quot;font-family: &amp;#34;arial&amp;#34; ; background-color: transparent ; vertical-align: baseline&quot; id=&quot;docs-internal-guid-782dff86-7fff-73ee-3931-7d468f0932c7&quot;&gt;&lt;font style=&quot;font-size: 14px&quot;&gt;Favorites&lt;/font&gt;&lt;/span&gt;" style="rounded=0;whiteSpace=wrap;html=1;" vertex="1" parent="1">
          <mxGeometry x="-270" y="1210" width="120" height="30" as="geometry" />
        </mxCell>
        <mxCell id="m7PNWXCtgrSbPOzqSXnF-26" value="&lt;span style=&quot;font-family: &amp;#34;arial&amp;#34; ; background-color: transparent ; vertical-align: baseline&quot; id=&quot;docs-internal-guid-4453dd02-7fff-08d9-fda8-3debc0077f14&quot;&gt;&lt;font style=&quot;font-size: 14px&quot;&gt;Manage Subscriptions&lt;/font&gt;&lt;/span&gt;" style="rounded=0;whiteSpace=wrap;html=1;" vertex="1" parent="1">
          <mxGeometry x="-140" y="1210" width="120" height="30" as="geometry" />
        </mxCell>
        <mxCell id="m7PNWXCtgrSbPOzqSXnF-29" style="edgeStyle=orthogonalEdgeStyle;rounded=0;orthogonalLoop=1;jettySize=auto;html=1;exitX=0.5;exitY=1;exitDx=0;exitDy=0;" edge="1" parent="1" source="m7PNWXCtgrSbPOzqSXnF-22" target="m7PNWXCtgrSbPOzqSXnF-22">
          <mxGeometry relative="1" as="geometry" />
        </mxCell>
      </root>
    </mxGraphModel>
  </diagram>
</mxfile>
